<mxfile host="app.diagrams.net" modified="2024-06-16T14:04:23.930Z" agent="Mozilla/5.0 (Windows NT 10.0; Win64; x64) AppleWebKit/537.36 (KHTML, like Gecko) Chrome/125.0.0.0 Safari/537.36" version="24.5.4" etag="LtKODeS4vtWZ2xG3D4Gx" type="github">
  <diagram name="Страница — 1" id="Rvp352CKN62Wv-DQYTOi">
    <mxGraphModel>
      <root>
        <mxCell id="0" />
        <mxCell id="1" parent="0" />
      </root>
    </mxGraphModel>
  </diagram>
</mxfile>
